<?xml version="1.0" encoding="utf-8"?>
<!-- Generator: Adobe Illustrator 16.0.0, SVG Export Plug-In . SVG Version: 6.00 Build 0)  -->
<!DOCTYPE svg PUBLIC "-//W3C//DTD SVG 1.1//EN" "http://www.w3.org/Graphics/SVG/1.1/DTD/svg11.dtd">
<svg version="1.1" xmlns="http://www.w3.org/2000/svg" xmlns:xlink="http://www.w3.org/1999/xlink" x="0px" y="0px"
	 width="77.285px" height="107.282px" viewBox="0 0 77.285 107.282" enable-background="new 0 0 77.285 107.282"
	 xml:space="preserve">
<g id="glass">
	<path fill="none" stroke="#FFFFFF" stroke-width="9" stroke-miterlimit="10" d="M58.009,9.788
		c-16.113-10.03-37.365-5.4-47.8,10.569c-10.58,16.189-6.032,37.889,10.156,48.468c16.189,10.579,37.889,6.032,48.468-10.156
		c1.033-1.581,1.917-3.215,2.665-4.884"/>
</g>
<g id="handle">
	<g>
		<path fill="#FFFFFF" stroke="#FFFFFF" stroke-width="2" stroke-miterlimit="10" d="M73.811,95.768L59.176,70.903
			c-0.722-1.373-2.855-1.672-4.765-0.667l-1.122,0.589c-1.909,1.006-2.872,2.933-2.15,4.305l12.199,26.148L73.811,95.768z"/>
		<path fill="#FFFFFF" stroke="#FFFFFF" stroke-width="2" stroke-miterlimit="10" d="M65.227,105.407l0.009,0.018
			c0.722,1.373,4.297,0.914,6.206-0.092l1.121-0.59c1.909-1.005,4.313-3.69,3.591-5.063l-0.01-0.016L65.227,105.407z"/>
		<polygon fill="#FFFFFF" stroke="#FFFFFF" stroke-width="2" stroke-miterlimit="10" points="75.186,98.103 74.563,97.066 
			63.982,102.632 64.484,103.733 		"/>
	</g>
</g>
<g id="inema_x5F_search">
</g>
<g id="dots">
	<circle fill="#FFFFFF" stroke="#FFFFFF" stroke-width="2" stroke-miterlimit="10" cx="41.031" cy="26.119" r="6.471"/>
	<circle fill="#FFFFFF" stroke="#FFFFFF" stroke-width="2" stroke-miterlimit="10" cx="53.671" cy="40.706" r="6.471"/>
	<circle fill="#FFFFFF" stroke="#FFFFFF" stroke-width="2" stroke-miterlimit="10" cx="26.584" cy="38.637" r="6.47"/>
	<circle fill="#FFFFFF" stroke="#FFFFFF" stroke-width="2" stroke-miterlimit="10" cx="39.224" cy="53.225" r="6.471"/>
	<circle fill="#FFFFFF" stroke="#FFFFFF" stroke-width="2" stroke-miterlimit="10" cx="40.034" cy="40.519" r="2.234"/>
</g>
</svg>
