<?xml version="1.0" encoding="utf-8"?>
<!-- Generator: Adobe Illustrator 16.0.0, SVG Export Plug-In . SVG Version: 6.00 Build 0)  -->
<!DOCTYPE svg PUBLIC "-//W3C//DTD SVG 1.1//EN" "http://www.w3.org/Graphics/SVG/1.1/DTD/svg11.dtd">
<svg version="1.1" xmlns="http://www.w3.org/2000/svg" xmlns:xlink="http://www.w3.org/1999/xlink" x="0px" y="0px"
	 width="450.853px" height="178.535px" viewBox="0 0 450.853 178.535" enable-background="new 0 0 450.853 178.535"
	 xml:space="preserve">
<g id="glass">
	<circle fill="#FFFFFF" stroke="#000000" stroke-width="9" stroke-miterlimit="10" cx="54.17" cy="53.17" r="45.658"/>
	<circle stroke="#000000" stroke-width="2" stroke-miterlimit="10" cx="43.319" cy="31.472" r="11.652"/>
	<circle stroke="#000000" stroke-width="2" stroke-miterlimit="10" cx="76.145" cy="42.891" r="11.652"/>
	<circle stroke="#000000" stroke-width="2" stroke-miterlimit="10" cx="32.01" cy="63.983" r="11.652"/>
	<circle stroke="#000000" stroke-width="2" stroke-miterlimit="10" cx="64.835" cy="75.402" r="11.652"/>
	<circle stroke="#000000" stroke-width="2" stroke-miterlimit="10" cx="54.692" cy="54.844" r="4.022"/>
</g>
<g id="handle">
	<g>
		<path stroke="#000000" stroke-width="2" stroke-miterlimit="10" d="M24.228,160.752l14.972-48.32
			c0.894-2.57-0.465-5.378-3.035-6.272l-1.509-0.525c-2.57-0.894-5.378,0.464-6.272,3.034L10.132,155.85L24.228,160.752z"/>
		<path stroke="#000000" stroke-width="2" stroke-miterlimit="10" d="M7.22,163.259l-0.012,0.033
			c-0.894,2.57,2.404,6.053,4.974,6.946l1.508,0.524c2.571,0.895,7.318,0.21,8.212-2.359l0.009-0.032L7.22,163.259z"/>
		<polygon stroke="#000000" stroke-width="2" stroke-miterlimit="10" points="22.821,165.292 23.436,163.261 9.196,158.308 
			8.417,160.28 		"/>
	</g>
	<rect x="124.902" y="28.479" fill="none" width="329.055" height="127.027"/>
	<text transform="matrix(1 0 0 1 124.9019 80.0298)"><tspan x="0" y="0" font-family="'Arial-BoldMT'" font-size="72" letter-spacing="4">CINEMA</tspan><tspan x="0" y="74.4" font-family="'Arial-BoldMT'" font-size="72" letter-spacing="4">SEARCH</tspan></text>
</g>
</svg>
