<?xml version="1.0" encoding="utf-8"?>
<!-- Generator: Adobe Illustrator 16.0.0, SVG Export Plug-In . SVG Version: 6.00 Build 0)  -->
<!DOCTYPE svg PUBLIC "-//W3C//DTD SVG 1.1//EN" "http://www.w3.org/Graphics/SVG/1.1/DTD/svg11.dtd">
<svg version="1.1" xmlns="http://www.w3.org/2000/svg" xmlns:xlink="http://www.w3.org/1999/xlink" x="0px" y="0px"
	 width="243.383px" height="107.282px" viewBox="0 0 243.383 107.282" enable-background="new 0 0 243.383 107.282"
	 xml:space="preserve">
<g id="glass">
	<path fill="none" stroke="#FFFFFF" stroke-width="9" stroke-miterlimit="10" d="M58.009,9.788
		c-16.113-10.03-37.365-5.4-47.8,10.569c-10.58,16.189-6.032,37.889,10.156,48.468c16.189,10.579,37.889,6.032,48.468-10.156
		c1.033-1.581,1.917-3.215,2.665-4.884"/>
</g>
<g id="handle">
	<g>
		<path fill="#FFFFFF" d="M73.811,95.768L59.176,70.903c-0.722-1.373-2.855-1.672-4.765-0.667l-1.122,0.589
			c-1.909,1.006-2.872,2.933-2.15,4.305l12.199,26.148L73.811,95.768z"/>
		<path fill="#FFFFFF" d="M65.227,105.407l0.009,0.018c0.722,1.373,4.297,0.914,6.206-0.092l1.121-0.59
			c1.909-1.005,4.313-3.69,3.591-5.063l-0.01-0.016L65.227,105.407z"/>
		<polygon fill="#FFFFFF" points="75.186,98.103 74.563,97.066 63.982,102.632 64.484,103.733 		"/>
	</g>
</g>
<g id="inema_x5F_search">
	<g>
		<path fill="#FFFFFF" d="M80.245,12.807c0,1.643-1.199,2.931-3.108,2.931c-1.82,0-3.02-1.288-3.02-2.931
			c0-1.688,1.244-2.975,3.064-2.975C79.046,9.832,80.201,11.12,80.245,12.807z M74.428,40.47V18.846h5.506V40.47H74.428z"/>
		<path fill="#FFFFFF" d="M85.796,25.284c0-2.486-0.044-4.573-0.178-6.438h4.795l0.267,3.242h0.133
			c0.933-1.688,3.286-3.73,6.882-3.73c3.774,0,7.682,2.442,7.682,9.28V40.47h-5.461V28.259c0-3.108-1.154-5.461-4.129-5.461
			c-2.176,0-3.686,1.554-4.263,3.197c-0.178,0.489-0.222,1.155-0.222,1.776V40.47h-5.506V25.284z"/>
		<path fill="#FFFFFF" d="M115.058,31.19c0.133,3.908,3.197,5.595,6.661,5.595c2.531,0,4.352-0.355,5.995-0.977l0.799,3.774
			c-1.865,0.755-4.44,1.332-7.549,1.332c-7.016,0-11.145-4.307-11.145-10.923c0-5.995,3.641-11.634,10.568-11.634
			c7.016,0,9.325,5.772,9.325,10.523c0,1.021-0.089,1.821-0.178,2.309H115.058z M124.561,27.371
			c0.044-1.998-0.844-5.284-4.485-5.284c-3.375,0-4.795,3.064-5.018,5.284H124.561z"/>
		<path fill="#FFFFFF" d="M134.108,25.284c0-2.486-0.044-4.573-0.178-6.438h4.707l0.222,3.197h0.133
			c1.066-1.688,3.02-3.686,6.661-3.686c2.842,0,5.062,1.599,5.994,3.996h0.089c0.755-1.199,1.643-2.087,2.664-2.708
			c1.199-0.843,2.575-1.288,4.352-1.288c3.597,0,7.238,2.442,7.238,9.369V40.47h-5.329V28.526c0-3.597-1.243-5.728-3.863-5.728
			c-1.864,0-3.241,1.332-3.818,2.886c-0.133,0.533-0.267,1.199-0.267,1.82V40.47h-5.328V27.949c0-3.02-1.199-5.151-3.73-5.151
			c-2.042,0-3.419,1.599-3.907,3.108c-0.222,0.533-0.311,1.154-0.311,1.776V40.47h-5.328V25.284z"/>
		<path fill="#FFFFFF" d="M183.93,40.47l-0.354-2.398h-0.134c-1.332,1.688-3.597,2.886-6.394,2.886
			c-4.352,0-6.794-3.152-6.794-6.438c0-5.461,4.84-8.214,12.832-8.17v-0.355c0-1.421-0.577-3.774-4.396-3.774
			c-2.131,0-4.352,0.666-5.816,1.598l-1.066-3.552c1.599-0.977,4.396-1.909,7.815-1.909c6.927,0,8.925,4.396,8.925,9.103v7.815
			c0,1.954,0.089,3.863,0.311,5.195H183.93z M183.22,29.902c-3.863-0.089-7.549,0.755-7.549,4.041c0,2.131,1.377,3.108,3.108,3.108
			c2.176,0,3.774-1.421,4.263-2.975c0.133-0.399,0.178-0.844,0.178-1.199V29.902z"/>
		<path fill="#FFFFFF" d="M94.676,83.807c1.776,1.021,4.44,1.91,7.238,1.91c3.508,0,5.461-1.643,5.461-4.085
			c0-2.264-1.51-3.597-5.329-4.973c-4.929-1.776-8.081-4.396-8.081-8.703c0-4.884,4.085-8.614,10.568-8.614
			c3.241,0,5.639,0.71,7.193,1.51l-1.332,4.396c-1.066-0.577-3.153-1.421-5.95-1.421c-3.463,0-4.973,1.865-4.973,3.597
			c0,2.309,1.732,3.375,5.728,4.929c5.195,1.954,7.726,4.574,7.726,8.881c0,4.795-3.641,8.969-11.367,8.969
			c-3.152,0-6.438-0.888-8.082-1.865L94.676,83.807z"/>
		<path fill="#FFFFFF" d="M122.651,80.477c0.133,3.908,3.197,5.595,6.661,5.595c2.531,0,4.352-0.355,5.995-0.977l0.799,3.774
			c-1.865,0.755-4.44,1.332-7.549,1.332c-7.016,0-11.145-4.307-11.145-10.923c0-5.995,3.641-11.634,10.568-11.634
			c7.016,0,9.325,5.772,9.325,10.523c0,1.021-0.089,1.821-0.178,2.309H122.651z M132.153,76.658
			c0.044-1.998-0.844-5.284-4.485-5.284c-3.375,0-4.795,3.064-5.018,5.284H132.153z"/>
		<path fill="#FFFFFF" d="M154.756,89.757l-0.355-2.398h-0.133c-1.332,1.688-3.597,2.886-6.395,2.886
			c-4.351,0-6.793-3.152-6.793-6.438c0-5.461,4.84-8.214,12.833-8.17v-0.355c0-1.421-0.577-3.774-4.396-3.774
			c-2.132,0-4.352,0.666-5.817,1.598l-1.065-3.552c1.599-0.977,4.396-1.909,7.814-1.909c6.928,0,8.926,4.396,8.926,9.103v7.815
			c0,1.954,0.089,3.863,0.311,5.195H154.756z M154.045,79.189c-3.862-0.089-7.548,0.755-7.548,4.041
			c0,2.131,1.376,3.108,3.108,3.108c2.175,0,3.773-1.421,4.262-2.975c0.134-0.399,0.178-0.844,0.178-1.199V79.189z"/>
		<path fill="#FFFFFF" d="M166.035,75.104c0-2.931-0.045-5.018-0.178-6.972h4.751l0.178,4.13h0.178
			c1.065-3.064,3.597-4.618,5.905-4.618c0.533,0,0.844,0.044,1.288,0.133v5.151c-0.444-0.089-0.933-0.178-1.599-0.178
			c-2.62,0-4.396,1.688-4.885,4.129c-0.088,0.488-0.177,1.066-0.177,1.688v11.189h-5.462V75.104z"/>
		<path fill="#FFFFFF" d="M198.229,89.091c-1.154,0.533-3.419,1.11-6.128,1.11c-6.749,0-11.146-4.307-11.146-11.012
			c0-6.483,4.44-11.545,12.033-11.545c1.999,0,4.041,0.444,5.284,1.021l-0.977,4.085c-0.888-0.4-2.176-0.844-4.13-0.844
			c-4.174,0-6.66,3.064-6.616,7.016c0,4.44,2.887,6.971,6.616,6.971c1.909,0,3.242-0.399,4.308-0.843L198.229,89.091z"/>
		<path fill="#FFFFFF" d="M203.157,58.23h5.506v12.877h0.089c0.666-1.021,1.554-1.865,2.709-2.486
			c1.065-0.622,2.353-0.977,3.729-0.977c3.686,0,7.549,2.442,7.549,9.369v12.744h-5.462V77.635c0-3.152-1.154-5.506-4.174-5.506
			c-2.132,0-3.641,1.421-4.219,3.063c-0.177,0.444-0.222,1.021-0.222,1.643v12.921h-5.506V58.23z"/>
	</g>
</g>
<g id="dots">
	<circle fill="#FFFEFE" stroke="#FFFFFF" stroke-width="2" stroke-miterlimit="10" cx="41.031" cy="26.119" r="6.471"/>
	<circle fill="#FFFEFE" stroke="#FFFFFF" stroke-width="2" stroke-miterlimit="10" cx="53.671" cy="40.706" r="6.471"/>
	<circle fill="#FFFEFE" stroke="#FFFFFF" stroke-width="2" stroke-miterlimit="10" cx="26.584" cy="38.637" r="6.47"/>
	<circle fill="#FFFEFE" stroke="#FFFFFF" stroke-width="2" stroke-miterlimit="10" cx="39.224" cy="53.225" r="6.471"/>
	<circle fill="#FFFEFE" stroke="#FFFFFF" stroke-width="2" stroke-miterlimit="10" cx="40.034" cy="40.519" r="2.234"/>
</g>
</svg>
