<?xml version="1.0" encoding="utf-8"?>
<!-- Generator: Adobe Illustrator 16.0.0, SVG Export Plug-In . SVG Version: 6.00 Build 0)  -->
<!DOCTYPE svg PUBLIC "-//W3C//DTD SVG 1.1//EN" "http://www.w3.org/Graphics/SVG/1.1/DTD/svg11.dtd">
<svg version="1.1" id="Layer_1" xmlns="http://www.w3.org/2000/svg" xmlns:xlink="http://www.w3.org/1999/xlink" x="0px" y="0px"
	 width="170px" height="260px" viewBox="0 0 170 260" enable-background="new 0 0 170 260" xml:space="preserve">
<g id="Layer_2">
	<rect x="-5.167" fill="#B2AFAF" width="178.901" height="262.341"/>
</g>
<g id="Layer_1_1_">
	<path fill="none" stroke="#000000" stroke-width="9" stroke-miterlimit="10" d="M99.206,45.813
		c-16.111-10.03-37.364-5.4-47.8,10.569c-10.58,16.189-6.032,37.889,10.156,48.467c16.189,10.58,37.89,6.033,48.467-10.156
		c1.033-1.58,1.916-3.215,2.664-4.884"/>
	<g>
		<path stroke="#000000" stroke-width="2" stroke-miterlimit="10" d="M115.009,131.793l-14.635-24.865
			c-0.722-1.373-2.854-1.672-4.765-0.667l-1.123,0.589c-1.907,1.006-2.87,2.934-2.149,4.305l12.199,26.148L115.009,131.793z"/>
		<path stroke="#000000" stroke-width="2" stroke-miterlimit="10" d="M106.425,141.432l0.011,0.019
			c0.723,1.373,4.297,0.914,6.205-0.093l1.121-0.59c1.909-1.004,4.313-3.688,3.592-5.063l-0.011-0.016L106.425,141.432z"/>
		<polygon stroke="#000000" stroke-width="2" stroke-miterlimit="10" points="116.384,134.129 115.762,133.092 105.182,138.656 
			105.684,139.758 		"/>
	</g>
	<circle stroke="#000000" stroke-width="2" stroke-miterlimit="10" cx="82.229" cy="62.145" r="6.471"/>
	<circle stroke="#000000" stroke-width="2" stroke-miterlimit="10" cx="94.869" cy="76.731" r="6.471"/>
	<circle stroke="#000000" stroke-width="2" stroke-miterlimit="10" cx="67.782" cy="74.663" r="6.47"/>
	<circle stroke="#000000" stroke-width="2" stroke-miterlimit="10" cx="80.422" cy="89.25" r="6.471"/>
	<circle stroke="#000000" stroke-width="2" stroke-miterlimit="10" cx="81.233" cy="76.544" r="2.234"/>
	<rect x="0.698" y="169.264" fill="none" width="169.302" height="19.586"/>
	<g enable-background="new    ">
		<path d="M23.512,181.334v-11.457h3.025l2.38,4.199c0.68,1.206,1.36,2.635,1.87,3.926h0.051c-0.17-1.513-0.221-3.06-0.221-4.776
			v-3.349h2.38v11.457h-2.72l-2.448-4.42c-0.68-1.224-1.428-2.702-1.989-4.045l-0.051,0.017c0.068,1.513,0.102,3.128,0.102,4.998
			v3.45H23.512z"/>
		<path d="M43.315,177.084c0,3.043-2.159,4.437-4.386,4.437c-2.431,0-4.3-1.598-4.3-4.283s1.768-4.402,4.437-4.402
			C41.616,172.835,43.315,174.586,43.315,177.084z M37.298,177.169c0,1.429,0.595,2.499,1.7,2.499c1.003,0,1.648-1.003,1.648-2.499
			c0-1.24-0.476-2.498-1.648-2.498C37.757,174.671,37.298,175.945,37.298,177.169z"/>
		<path d="M48.434,170.03c0.799-0.136,1.92-0.238,3.501-0.238c1.598,0,2.737,0.306,3.501,0.918c0.731,0.578,1.224,1.53,1.224,2.651
			c0,1.122-0.374,2.074-1.054,2.72c-0.884,0.833-2.192,1.207-3.722,1.207c-0.34,0-0.646-0.017-0.884-0.051v4.097h-2.566V170.03z
			 M51,175.231c0.221,0.051,0.493,0.068,0.867,0.068c1.377,0,2.227-0.697,2.227-1.87c0-1.054-0.731-1.683-2.022-1.683
			c-0.527,0-0.884,0.051-1.071,0.102V175.231z"/>
		<path d="M66.028,177.084c0,3.043-2.159,4.437-4.386,4.437c-2.431,0-4.3-1.598-4.3-4.283s1.768-4.402,4.437-4.402
			C64.328,172.835,66.028,174.586,66.028,177.084z M60.01,177.169c0,1.429,0.595,2.499,1.7,2.499c1.003,0,1.648-1.003,1.648-2.499
			c0-1.24-0.476-2.498-1.648-2.498C60.469,174.671,60.01,175.945,60.01,177.169z"/>
		<path d="M67.609,179.073c0.476,0.289,1.462,0.629,2.227,0.629c0.782,0,1.105-0.272,1.105-0.697s-0.255-0.629-1.224-0.951
			c-1.717-0.578-2.379-1.514-2.362-2.499c0-1.547,1.326-2.72,3.382-2.72c0.969,0,1.836,0.221,2.346,0.476l-0.459,1.785
			c-0.374-0.204-1.088-0.476-1.802-0.476c-0.629,0-0.986,0.255-0.986,0.68c0,0.391,0.323,0.595,1.343,0.952
			c1.581,0.544,2.244,1.343,2.261,2.566c0,1.547-1.224,2.686-3.604,2.686c-1.088,0-2.057-0.238-2.686-0.578L67.609,179.073z"/>
		<path d="M77.894,170.642v2.38h1.853v1.904h-1.853v3.009c0,1.003,0.238,1.462,1.02,1.462c0.323,0,0.578-0.034,0.765-0.068
			l0.017,1.955c-0.34,0.136-0.952,0.221-1.683,0.221c-0.833,0-1.53-0.289-1.938-0.714c-0.476-0.493-0.714-1.292-0.714-2.465v-3.399
			h-1.105v-1.904h1.105v-1.802L77.894,170.642z"/>
		<path d="M83.147,178.002c0.085,1.071,1.139,1.581,2.346,1.581c0.884,0,1.597-0.119,2.294-0.34l0.34,1.751
			c-0.85,0.34-1.887,0.51-3.008,0.51c-2.822,0-4.437-1.632-4.437-4.232c0-2.107,1.309-4.437,4.199-4.437
			c2.686,0,3.705,2.091,3.705,4.147c0,0.442-0.051,0.833-0.084,1.02H83.147z M86.189,176.234c0-0.629-0.271-1.683-1.462-1.683
			c-1.088,0-1.53,0.985-1.598,1.683H86.189z"/>
		<path d="M90.135,175.759c0-1.224-0.035-2.023-0.068-2.737h2.227l0.085,1.53h0.067c0.426-1.207,1.445-1.717,2.244-1.717
			c0.238,0,0.357,0,0.544,0.034v2.431c-0.187-0.034-0.407-0.068-0.696-0.068c-0.952,0-1.598,0.51-1.769,1.309
			c-0.034,0.171-0.051,0.374-0.051,0.578v4.216h-2.583V175.759z"/>
		<path d="M100.113,169.877h7.003v2.125h-4.402v2.618h4.114v2.107h-4.114v4.606h-2.601V169.877z"/>
		<path d="M116.755,177.084c0,3.043-2.159,4.437-4.386,4.437c-2.431,0-4.301-1.598-4.301-4.283s1.769-4.402,4.437-4.402
			C115.055,172.835,116.755,174.586,116.755,177.084z M110.737,177.169c0,1.429,0.595,2.499,1.7,2.499
			c1.003,0,1.648-1.003,1.648-2.499c0-1.24-0.476-2.498-1.648-2.498C111.196,174.671,110.737,175.945,110.737,177.169z"/>
		<path d="M126.19,178.665c0,1.088,0.034,1.972,0.068,2.669h-2.244l-0.119-1.173h-0.051c-0.323,0.51-1.104,1.359-2.601,1.359
			c-1.683,0-2.924-1.054-2.924-3.62v-4.879h2.601v4.471c0,1.207,0.391,1.938,1.292,1.938c0.714,0,1.122-0.492,1.292-0.9
			c0.068-0.153,0.085-0.357,0.085-0.561v-4.947h2.601V178.665z"/>
		<path d="M128.265,175.674c0-1.037-0.034-1.921-0.068-2.652h2.244l0.119,1.14h0.051c0.34-0.527,1.189-1.326,2.566-1.326
			c1.7,0,2.975,1.122,2.975,3.569v4.93h-2.583v-4.606c0-1.071-0.374-1.802-1.31-1.802c-0.714,0-1.139,0.493-1.309,0.969
			c-0.068,0.153-0.102,0.408-0.102,0.646v4.794h-2.584V175.674z"/>
		<path d="M146.284,169.266v9.587c0,0.935,0.034,1.921,0.068,2.481h-2.295l-0.119-1.224h-0.034c-0.526,0.935-1.529,1.41-2.601,1.41
			c-1.972,0-3.553-1.683-3.553-4.267c-0.017-2.805,1.734-4.419,3.723-4.419c1.021,0,1.819,0.356,2.193,0.935h0.034v-4.504H146.284z
			 M143.701,176.54c0-0.136-0.018-0.322-0.034-0.459c-0.153-0.696-0.714-1.274-1.513-1.274c-1.173,0-1.785,1.054-1.785,2.362
			c0,1.411,0.697,2.295,1.768,2.295c0.748,0,1.343-0.51,1.496-1.24c0.051-0.188,0.068-0.374,0.068-0.596V176.54z"/>
	</g>
</g>
</svg>
